<svg xmlns="http://www.w3.org/2000/svg" width="26" height="26" viewBox="0 0 26 26">
    <path fill="#00A1E9" fill-rule="nonzero" d="M4.165 0A4.164 4.164 0 0 0 0 4.166v17.669C0 24.135 1.863 26 4.165 26h17.67C24.137 26 26 24.135 26 21.835v-.18c-.078-.033-6.757-2.82-10.152-4.452-2.29 2.819-5.245 4.529-8.313 4.529-5.187 0-6.948-4.54-4.492-7.528.535-.651 1.446-1.274 2.86-1.622 2.212-.544 5.732.34 9.031 1.428a18.074 18.074 0 0 0 1.465-3.58H6.232V9.402h5.242V7.555h-6.35v-1.03h6.35V3.89s0-.443.45-.443h2.563v3.077h6.277v1.03h-6.277v1.847h5.123a20.96 20.96 0 0 1-2.169 5.48c1.555.563 2.95 1.097 3.991 1.445 3.47 1.161 4.442 1.303 4.568 1.318V4.166A4.164 4.164 0 0 0 21.836 0H4.165zm2.851 14.087a7.76 7.76 0 0 0-.672.037c-.65.065-1.869.352-2.535.941-1.999 1.743-.803 4.93 3.242 4.93 2.351 0 4.7-1.504 6.546-3.91-2.38-1.162-4.429-2.023-6.58-1.998z"/>
</svg>
