<svg xmlns="http://www.w3.org/2000/svg" xmlns:xlink="http://www.w3.org/1999/xlink" width="39" height="25" viewBox="0 0 39 25">
    <defs>
        <path id="a" d="M.014.01h38.873v24.894H.014z"/>
    </defs>
    <g fill="none" fill-rule="evenodd">
        <g>
            <mask id="b" fill="#fff">
                <use xlink:href="#a"/>
            </mask>
            <path fill="#1A1919" d="M35.405.008H3.083a17.8 17.8 0 0 0-.335.006c-.244.007-.49.021-.732.064a2.462 2.462 0 0 0-.695.23A2.337 2.337 0 0 0 .3 1.33c-.113.222-.185.45-.229.695a4.834 4.834 0 0 0-.064.731L0 3.092V21.82l.006.335c.006.244.02.49.064.73.044.246.116.474.23.696a2.331 2.331 0 0 0 1.021 1.022c.223.114.45.186.695.23.241.043.488.057.732.064.112.003.224.004.336.005h32.72c.111 0 .223-.002.336-.005.243-.007.49-.021.731-.064.245-.044.473-.116.695-.23a2.328 2.328 0 0 0 1.022-1.022c.114-.222.186-.45.229-.695a4.83 4.83 0 0 0 .064-.731l.006-.336V3.491v-.4l-.006-.335a4.833 4.833 0 0 0-.064-.731 2.439 2.439 0 0 0-.229-.695A2.344 2.344 0 0 0 36.871.078a4.873 4.873 0 0 0-.731-.064 17.917 17.917 0 0 0-.336-.005h-.399" mask="url(#b)"/>
        </g>
        <path fill="#FFFFFE" d="M35.405.838h.393l.32.006c.185.005.403.015.606.051.176.032.324.08.466.152a1.501 1.501 0 0 1 .659.66c.072.14.12.288.152.465.036.201.046.42.05.607.004.105.005.211.006.32v18.717c0 .106-.002.212-.005.318a4.11 4.11 0 0 1-.052.608c-.031.175-.08.322-.151.464a1.5 1.5 0 0 1-.66.66 1.62 1.62 0 0 1-.463.15 4.2 4.2 0 0 1-.605.052c-.107.003-.214.004-.324.005H3.087c-.107 0-.213-.002-.317-.004a4.23 4.23 0 0 1-.607-.052 1.625 1.625 0 0 1-.466-.153 1.486 1.486 0 0 1-.658-.658 1.626 1.626 0 0 1-.152-.467 4.151 4.151 0 0 1-.052-.605 16.037 16.037 0 0 1-.005-.318V3.097c.001-.106.002-.212.005-.318.005-.186.015-.404.052-.608.031-.176.08-.323.152-.466a1.5 1.5 0 0 1 .659-.658c.14-.072.289-.12.465-.152.203-.036.42-.046.607-.051.107-.003.213-.005.319-.005l.394-.001h31.922"/>
        <path fill="#1A1919" d="M10.222 8.412c.33-.412.553-.966.494-1.532-.482.024-1.071.319-1.412.731-.306.354-.577.93-.507 1.472.542.047 1.083-.27 1.425-.671M10.71 9.19c-.787-.048-1.455.446-1.831.446-.376 0-.951-.423-1.574-.412-.81.012-1.561.47-1.972 1.198-.845 1.457-.223 3.619.599 4.805.4.587.88 1.234 1.514 1.21.599-.023.834-.387 1.562-.387.727 0 .939.388 1.573.376.657-.012 1.068-.588 1.468-1.175.458-.67.645-1.316.657-1.351-.012-.012-1.268-.494-1.28-1.939-.011-1.21.987-1.785 1.034-1.82-.564-.834-1.445-.928-1.75-.952M16.618 12.206h1.57c1.19 0 1.868-.642 1.868-1.753 0-1.111-.678-1.747-1.863-1.747h-1.575v3.5zm1.936-4.654c1.71 0 2.9 1.179 2.9 2.895 0 1.722-1.215 2.907-2.943 2.907h-1.893v3.01H15.25V7.552h3.304zM25.947 13.97v-.494l-1.521.098c-.855.055-1.3.372-1.3.928 0 .537.463.885 1.19.885.928 0 1.63-.592 1.63-1.416zm-4.153.569c0-1.13.861-1.778 2.449-1.875l1.704-.104v-.489c0-.714-.47-1.105-1.307-1.105-.69 0-1.191.354-1.295.898h-1.234c.037-1.142 1.112-1.973 2.565-1.973 1.564 0 2.584.818 2.584 2.089v4.384h-1.265v-1.056h-.03c-.36.69-1.154 1.123-2.015 1.123-1.27 0-2.156-.757-2.156-1.892zM28.422 18.722v-1.057c.085.012.293.025.403.025.604 0 .946-.257 1.154-.916l.122-.391-2.314-6.412h1.428l1.613 5.203h.03l1.613-5.203h1.392l-2.4 6.736c-.55 1.545-1.179 2.052-2.51 2.052-.104 0-.44-.013-.531-.037"/>
    </g>
</svg>
