<?xml version="1.0" encoding="utf-8"?>
<!-- Generator: Adobe Illustrator 24.2.0, SVG Export Plug-In . SVG Version: 6.00 Build 0)  -->
<svg version="1.1" id="Layer_1" xmlns="http://www.w3.org/2000/svg" xmlns:xlink="http://www.w3.org/1999/xlink" x="0px" y="0px"
	 viewBox="0 0 55 34" style="enable-background:new 0 0 55 34;" xml:space="preserve">
<style type="text/css">
	.st0{fill:#FC1154;}
	.st1{fill:#FFFFFF;}
</style>
<g>
	<g>
		<path class="st0" d="M51.98,34h-49c-1.66,0-3-1.34-3-3V3c0-1.66,1.34-3,3-3h49c1.66,0,3,1.34,3,3v28
			C54.98,32.66,53.63,34,51.98,34z"/>
	</g>
	<path class="st1" d="M25.97,10.84v6.12h-2.52v-5.12c0-1.26-0.94-1.94-1.82-1.94c-0.77,0-1.36,0.37-1.94,1.19v5.87h-2.52v-4.51
		c-0.26,0.09-0.52,0.16-0.77,0.22c-0.14,2.6-1.98,4.46-4.47,4.46c-2.6,0-4.48-2.01-4.48-4.76V7.57h2.52v4.79
		c0,1.03,0.51,2.24,1.96,2.24c1.33,0,1.87-1.02,1.95-1.99c-1.05-0.44-1.7-1.5-1.7-2.92c0-1.46,1.09-2.32,2.14-2.32
		c1.34,0,2.09,1.34,2.08,2.67c0,0,0.37-0.13,0.77-0.36V7.57h2.52v0.81c0.86-0.7,1.66-1.02,2.58-1.02c1.02,0,1.95,0.36,2.64,1
		C25.6,9,25.97,9.88,25.97,10.84z M26.98,9.79h4.27l-4.5,5.35l0,0v1.81h8v-2.22h-4.53l4.53-5.42l0,0V7.56h-7.77L26.98,9.79
		L26.98,9.79z M42.93,8.67c0.85,0.86,1.29,2.08,1.29,3.52v0.87h-6.78c0.18,1.16,1.01,1.85,2.23,1.85c1.02,0,1.9-0.41,2.29-1.07
		l0.01-0.01l0.01,0l1.98,0.89l-0.01,0.01c-0.79,1.52-2.37,2.39-4.32,2.39c-2.81,0-4.69-1.96-4.69-4.87c0-1.37,0.5-2.63,1.41-3.53
		c0.87-0.87,2.04-1.34,3.28-1.34C40.97,7.39,42.1,7.83,42.93,8.67z M41.76,11.09c-0.21-0.97-1-1.55-2.13-1.55
		c-1.03,0-1.82,0.58-2.12,1.55H41.76z M50.55,7.5c-0.34-0.1-0.72-0.1-0.72-0.1c-0.83,0-1.63,0.32-2.31,0.92V7.56H45v9.39h2.52v-5.82
		c0.5-0.94,1.26-1.46,2.15-1.46c0,0,0.4,0,0.65,0.08L50.55,7.5z M6.31,26.05v0.38H5.33v-5.11h0.98v1.95c0.26-0.22,0.6-0.41,1.1-0.41
		c0.85,0,1.67,0.59,1.67,1.82S8.21,26.5,7.43,26.5C6.91,26.5,6.55,26.3,6.31,26.05z M8.08,24.67c0-0.66-0.39-1.01-0.9-1.01
		c-0.48,0-0.87,0.32-0.87,0.84v0.34c0,0.53,0.41,0.84,0.85,0.84C7.69,25.68,8.08,25.33,8.08,24.67z M9.58,24.67
		c0-1.23,0.88-1.82,1.74-1.82c0.44,0,0.77,0.15,1.03,0.36v-0.29h0.98v3.5h-0.98v-0.36c-0.23,0.25-0.57,0.43-1.09,0.43
		C10.48,26.5,9.58,25.91,9.58,24.67z M12.34,24.84v-0.34c0-0.52-0.39-0.84-0.86-0.84c-0.52,0-0.91,0.35-0.91,1.01
		s0.39,1.01,0.92,1.01C11.96,25.68,12.34,25.37,12.34,24.84z M14.19,26.43v-3.5h0.98v0.46c0.27-0.29,0.66-0.53,1.16-0.53
		c0.78,0,1.21,0.5,1.21,1.18v2.4h-0.98v-2.11c0-0.41-0.2-0.62-0.57-0.62c-0.34,0-0.66,0.24-0.83,0.53v2.21H14.19z M18.38,26.43
		v-5.11h0.98v2.75h0.04l1-1.14h1.16l-1.34,1.54l1.42,1.96h-1.16l-1.07-1.47h-0.04v1.47H18.38z M23.98,25.43v-1.7h-0.62v-0.81h0.62
		v-1h0.13l0.85,0.29v0.71h0.74v0.81h-0.74v1.61c0,0.23,0.14,0.35,0.38,0.35c0.11,0,0.18-0.02,0.28-0.05l0.05,0.03v0.75
		c-0.21,0.05-0.37,0.07-0.62,0.07C24.43,26.5,23.98,26.17,23.98,25.43z M26.39,26.43v-3.5h0.98v0.42c0.23-0.28,0.56-0.49,0.97-0.49
		c0.14,0,0.26,0.02,0.34,0.06l-0.13,0.77l-0.05,0.05c-0.06-0.01-0.14-0.04-0.24-0.04c-0.38,0-0.7,0.21-0.9,0.63v2.1H26.39z
		 M28.96,24.67c0-1.23,0.88-1.82,1.74-1.82c0.44,0,0.77,0.15,1.03,0.36v-0.29h0.98v3.5h-0.98v-0.36c-0.23,0.25-0.57,0.43-1.09,0.43
		C29.87,26.5,28.96,25.91,28.96,24.67z M31.73,24.84v-0.34c0-0.52-0.38-0.84-0.86-0.84c-0.52,0-0.91,0.35-0.91,1.01
		s0.39,1.01,0.92,1.01C31.34,25.68,31.73,25.37,31.73,24.84z M33.58,26.43v-3.5h0.98v0.46c0.27-0.29,0.66-0.53,1.16-0.53
		c0.78,0,1.21,0.5,1.21,1.18v2.4h-0.98v-2.11c0-0.41-0.2-0.62-0.57-0.62c-0.34,0-0.66,0.24-0.83,0.53v2.21H33.58z M37.53,25.47
		l0.03-0.09l0.75-0.22c0.08,0.35,0.29,0.59,0.76,0.59c0.29,0,0.5-0.13,0.5-0.34c0-0.22-0.16-0.32-0.77-0.48
		c-0.71-0.17-1.11-0.49-1.11-1.06c0-0.56,0.5-1,1.26-1c0.74,0,1.23,0.34,1.37,0.92l-0.04,0.08l-0.74,0.18
		c-0.07-0.33-0.3-0.5-0.6-0.5c-0.23,0-0.41,0.11-0.41,0.27c0,0.22,0.27,0.31,0.91,0.49c0.69,0.19,1.05,0.47,1.05,1.04
		c0,0.65-0.55,1.16-1.4,1.16C38.22,26.5,37.71,26.1,37.53,25.47z M41.36,26.43v-2.69h-0.59v-0.81h0.59v-0.57
		c0-0.78,0.59-1.11,1.21-1.11c0.2,0,0.36,0.03,0.5,0.07v0.76l-0.05,0.04c-0.08-0.04-0.2-0.06-0.32-0.06c-0.21,0-0.36,0.11-0.36,0.36
		v0.52h0.72v0.81h-0.72v2.69H41.36z M43.39,24.67c0-1.09,0.85-1.82,1.8-1.82c1.04,0,1.76,0.67,1.76,1.8v0.26h-2.63
		c0.05,0.48,0.39,0.79,0.9,0.79c0.45,0,0.68-0.22,0.8-0.54l0.82,0.08l0.05,0.08c-0.27,0.78-0.85,1.16-1.69,1.16
		C44.15,26.5,43.39,25.77,43.39,24.67z M46.02,24.28c-0.05-0.42-0.39-0.69-0.84-0.69c-0.41,0-0.76,0.27-0.84,0.69H46.02z
		 M47.6,26.43v-3.5h0.98v0.42c0.23-0.28,0.56-0.49,0.97-0.49c0.14,0,0.26,0.02,0.34,0.06l-0.13,0.77l-0.05,0.05
		c-0.06-0.01-0.14-0.04-0.24-0.04c-0.38,0-0.7,0.21-0.9,0.63v2.1H47.6z"/>
</g>
</svg>
