<svg xmlns="http://www.w3.org/2000/svg" width="40" height="40" viewBox="0 0 40 40">
    <g fill="none" fill-rule="evenodd">
        <path fill="#C8036F" d="M15.361 25.173h-7.18a2.852 2.852 0 0 1-2.53-1.558h7.994V22.35c0-3.1-2.46-5.614-5.496-5.614-3.036 0-5.497 2.513-5.497 5.614 0 3.1 2.461 5.614 5.497 5.614h7.178c-.18.997-1.035 1.752-2.063 1.752H3.097C1.939 29.716 1 28.757 1 27.575v-10.45c0-1.183.939-2.142 2.097-2.142h10.167c1.158 0 2.097.96 2.097 2.142v8.048zm-4.618-4.219H5.618a2.855 2.855 0 0 1 2.563-1.622c1.122 0 2.094.66 2.562 1.622zm-.275-7.983v-1.298c0-1.29-1.024-2.336-2.287-2.336-1.264 0-2.288 1.046-2.288 2.336v1.298c0 .144-.114.26-.254.26h-1.78a.257.257 0 0 1-.254-.26v-1.298C3.605 9.093 5.654 7 8.181 7c2.526 0 4.575 2.092 4.575 4.673v1.298c0 .144-.114.26-.254.26h-1.78a.257.257 0 0 1-.254-.26z"/>
        <path fill="#71706F" d="M22.16 27.964h-2.732V34H16.76V22.35c0-3.1 2.418-5.614 5.402-5.614 2.983 0 5.4 2.513 5.4 5.614 0 3.1-2.417 5.614-5.4 5.614zm0-2.856c1.51 0 2.733-1.264 2.733-2.823 0-1.56-1.223-2.823-2.732-2.823-1.51 0-2.733 1.264-2.733 2.823v2.823h2.733zm3.674 2.856a6.755 6.755 0 0 0 2.28-2.79h7.454c.387 0 .7-.32.7-.715a.707.707 0 0 0-.7-.714h-3.43c-1.896 0-3.432-1.569-3.432-3.505 0-1.935 1.536-3.504 3.431-3.504h5.338v2.726h-5.401a.707.707 0 0 0-.7.713v.065c0 .395.314.714.7.714h3.495c1.895 0 3.431 1.57 3.431 3.505 0 1.936-1.536 3.505-3.431 3.505h-9.735z"/>
    </g>
</svg>
