<svg xmlns="http://www.w3.org/2000/svg" width="32" height="27" viewBox="0 0 32 27">
    <g fill="none" fill-rule="nonzero">
        <path fill="#000" d="M27.59 24.047C25.229 25.987 22.19 27 18.479 27H.506V0h17.888c3.712 0 6.75 1.012 9.112 3.122 1.435 1.266 2.363 2.615 2.953 4.219a16.95 16.95 0 0 1 1.097 6.075c0 4.893-1.35 8.437-3.965 10.63zm2.194-10.631c0-3.966-1.096-7.004-3.375-9.028-2.025-1.772-4.809-2.7-8.268-2.7H2.278v23.456h15.778c7.847.084 11.728-3.797 11.728-11.728zM6.497 8.269c-.76 0-1.434.253-2.025.844a2.795 2.795 0 0 0-.844 2.024c0 .76.253 1.435.844 2.025a2.795 2.795 0 0 0 2.025.844c.76 0 1.434-.253 2.025-.844a2.795 2.795 0 0 0 .844-2.025c0-.759-.253-1.434-.844-2.024-.59-.507-1.266-.844-2.025-.844zM3.966 23.456h5.062v-8.268H3.966v8.268z"/>
        <path fill="#CD0067" d="M24.637 13.753h3.544c0 6.497-3.628 9.703-10.884 9.703h-5.99v-9.703h.59c.74 0 2.278-.042 2.278-2.362 0-2.32-1.537-2.532-2.363-2.532h-.59V3.966h5.99c6.835 0 10.463 2.953 10.885 8.775h-2.194V8.859h-1.265v4.894zM12.32 12.741h-1.013V9.956h.928c.277 0 .76.377.76 1.35 0 .974-.356 1.435-.675 1.435zm3.881 0v-.928h2.363V10.8H16.2v-.844h2.531V8.944H15.02v4.893H18.9v-1.096h-2.7zm6.075-3.882h-1.266l-1.856 4.894h1.266l.337-1.012h1.772c0 .084.085.421.338 1.012h1.265L22.275 8.86zm-1.012 2.87l.337-1.266.506 1.265h-.844z"/>
    </g>
</svg>
