<?xml version="1.0" encoding="UTF-8"?>
<!-- Generator: Adobe Illustrator 25.2.3, SVG Export Plug-In . SVG Version: 6.00 Build 0)  -->
<svg version="1.1" id="Layer_1" xmlns="http://www.w3.org/2000/svg" xmlns:xlink="http://www.w3.org/1999/xlink" x="0px" y="0px" viewBox="0 0 55 34" style="enable-background:new 0 0 55 34;" xml:space="preserve">
<style type="text/css">
	.st0{fill:#FC1154;}
	.st1{fill:#FFFFFF;}
</style>
<g>
	<path class="st0" d="M52,34H3c-1.7,0-3-1.3-3-3V3c0-1.7,1.3-3,3-3h49c1.7,0,3,1.3,3,3v28C55,32.7,53.7,34,52,34z"/>
</g>
<path class="st1" d="M24.5,10.8V17H22v-5.1c0-1.3-0.9-1.9-1.8-1.9c-0.8,0-1.4,0.4-1.9,1.2V17h-2.5v-4.5c-0.3,0.1-0.5,0.2-0.8,0.2  c-0.1,2.6-2,4.5-4.5,4.5c-2.6,0-4.5-2-4.5-4.8V7.6h2.5v4.8c0,1,0.5,2.2,2,2.2c1.3,0,1.9-1,1.9-2c-1-0.4-1.7-1.5-1.7-2.9  c0-1.5,1.1-2.3,2.1-2.3c1.3,0,2.1,1.3,2.1,2.7c0,0,0.4-0.1,0.8-0.4V7.6h2.5v0.8c0.9-0.7,1.7-1,2.6-1c1,0,2,0.4,2.6,1  C24.1,9,24.5,9.9,24.5,10.8z M25.5,9.8h4.3l-4.5,5.3l0,0V17h8v-2.2h-4.5l4.5-5.4l0,0V7.6h-7.8L25.5,9.8L25.5,9.8z M41.5,8.7  c0.8,0.9,1.3,2.1,1.3,3.5v0.9H36c0.2,1.2,1,1.8,2.2,1.8c1,0,1.9-0.4,2.3-1.1l0,0l0,0l2,0.9l0,0c-0.8,1.5-2.4,2.4-4.3,2.4  c-2.8,0-4.7-2-4.7-4.9c0-1.4,0.5-2.6,1.4-3.5c0.9-0.9,2-1.3,3.3-1.3C39.5,7.4,40.6,7.8,41.5,8.7z M40.3,11.1c-0.2-1-1-1.5-2.1-1.5  c-1,0-1.8,0.6-2.1,1.5H40.3z M49.1,7.5c-0.3-0.1-0.7-0.1-0.7-0.1c-0.8,0-1.6,0.3-2.3,0.9V7.6h-2.5V17H46v-5.8  c0.5-0.9,1.3-1.5,2.2-1.5c0,0,0.4,0,0.6,0.1L49.1,7.5z"/>
<g>
	<path class="st1" d="M3,25.7v-3.8h1.4c1.3,0,2,0.7,2,1.9c0,1.2-0.8,1.9-2,1.9H3z M3.9,25h0.5c0.8,0,1.2-0.4,1.2-1.2   s-0.4-1.2-1.2-1.2H3.9V25z"/>
	<path class="st1" d="M7,22.2c0-0.2,0.2-0.4,0.4-0.4c0.2,0,0.4,0.2,0.4,0.4c0,0.2-0.2,0.4-0.4,0.4C7.2,22.6,7,22.4,7,22.2z M7,25.7   v-2.7h0.8v2.7H7z"/>
	<path class="st1" d="M8.4,25.7v-2.7h0.8v0.3c0.2-0.2,0.4-0.4,0.8-0.4c0.1,0,0.2,0,0.3,0l-0.1,0.6l0,0c0,0-0.1,0-0.2,0   c-0.3,0-0.5,0.2-0.7,0.5v1.6H8.4z"/>
	<path class="st1" d="M10.5,24.3c0-0.9,0.7-1.4,1.4-1.4c0.8,0,1.4,0.5,1.4,1.4v0.2h-2.1c0,0.4,0.3,0.6,0.7,0.6   c0.4,0,0.5-0.2,0.6-0.4l0.6,0.1l0,0.1c-0.2,0.6-0.7,0.9-1.3,0.9C11.1,25.7,10.5,25.2,10.5,24.3z M12.5,24c0-0.3-0.3-0.5-0.7-0.5   c-0.3,0-0.6,0.2-0.7,0.5H12.5z"/>
	<path class="st1" d="M13.8,25.7v-4h0.8v2.2h0l0.8-0.9h0.9l-1.1,1.2l1.1,1.5h-0.9l-0.8-1.2h0v1.2H13.8z"/>
	<path class="st1" d="M17,24.9v-1.3h-0.5v-0.6H17v-0.8h0.1l0.7,0.2v0.6h0.6v0.6h-0.6v1.3c0,0.2,0.1,0.3,0.3,0.3c0.1,0,0.1,0,0.2,0   l0,0v0.6c-0.2,0-0.3,0.1-0.5,0.1C17.4,25.7,17,25.5,17,24.9z"/>
	<path class="st1" d="M18.9,24.7v-1.8h0.8v1.7c0,0.3,0.2,0.5,0.5,0.5c0.3,0,0.5-0.2,0.6-0.4v-1.7h0.8v2.7h-0.8v-0.3   c-0.2,0.2-0.5,0.4-0.9,0.4C19.3,25.7,18.9,25.3,18.9,24.7z M19.3,22.2c0-0.2,0.2-0.4,0.4-0.4s0.4,0.2,0.4,0.4   c0,0.2-0.2,0.4-0.4,0.4S19.3,22.4,19.3,22.2z M20.4,22.2c0-0.2,0.2-0.4,0.4-0.4c0.2,0,0.4,0.2,0.4,0.4c0,0.2-0.2,0.4-0.4,0.4   C20.5,22.6,20.4,22.4,20.4,22.2z"/>
	<path class="st1" d="M23,25.4v0.3h-0.8v-4H23v1.5c0.2-0.2,0.5-0.3,0.9-0.3c0.7,0,1.3,0.5,1.3,1.4s-0.7,1.4-1.3,1.4   C23.4,25.7,23.2,25.6,23,25.4z M24.4,24.3c0-0.5-0.3-0.8-0.7-0.8c-0.4,0-0.7,0.3-0.7,0.7v0.3c0,0.4,0.3,0.7,0.7,0.7   C24.1,25.1,24.4,24.8,24.4,24.3z"/>
	<path class="st1" d="M25.5,24.3c0-0.9,0.7-1.4,1.4-1.4c0.8,0,1.4,0.5,1.4,1.4v0.2h-2.1c0,0.4,0.3,0.6,0.7,0.6   c0.4,0,0.5-0.2,0.6-0.4l0.6,0.1l0,0.1c-0.2,0.6-0.7,0.9-1.3,0.9C26.1,25.7,25.5,25.2,25.5,24.3z M27.6,24c0-0.3-0.3-0.5-0.7-0.5   c-0.3,0-0.6,0.2-0.7,0.5H27.6z"/>
	<path class="st1" d="M28.9,25.7v-2.7h0.8v0.3c0.2-0.2,0.4-0.4,0.8-0.4c0.1,0,0.2,0,0.3,0l-0.1,0.6l0,0c0,0-0.1,0-0.2,0   c-0.3,0-0.5,0.2-0.7,0.5v1.6H28.9z"/>
	<path class="st1" d="M31.8,25.7L31,22.9h0.8l0.4,1.4l0.1,0.4h0l0.1-0.4l0.4-1.4h0.7l0.4,1.4l0.1,0.4h0l0.1-0.4l0.4-1.4h0.8   l-0.8,2.7h-0.8l-0.5-1.8l-0.5,1.8H31.8z"/>
	<path class="st1" d="M35.4,24.3c0-0.9,0.7-1.4,1.4-1.4c0.8,0,1.4,0.5,1.4,1.4v0.2h-2.1c0,0.4,0.3,0.6,0.7,0.6   c0.4,0,0.5-0.2,0.6-0.4l0.6,0.1l0,0.1c-0.2,0.6-0.7,0.9-1.3,0.9C36,25.7,35.4,25.2,35.4,24.3z M37.5,24c0-0.3-0.3-0.5-0.7-0.5   c-0.3,0-0.6,0.2-0.7,0.5H37.5z"/>
	<path class="st1" d="M38.6,22.2c0-0.2,0.2-0.4,0.4-0.4c0.2,0,0.4,0.2,0.4,0.4c0,0.2-0.2,0.4-0.4,0.4C38.8,22.6,38.6,22.4,38.6,22.2   z M38.7,25.7v-2.7h0.8v2.7H38.7z"/>
	<path class="st1" d="M39.9,24.9L39.9,24.9l0.6-0.2c0.1,0.3,0.2,0.5,0.6,0.5c0.2,0,0.4-0.1,0.4-0.3c0-0.2-0.1-0.3-0.6-0.4   c-0.6-0.1-0.9-0.4-0.9-0.8c0-0.4,0.4-0.8,1-0.8c0.6,0,1,0.3,1.1,0.7l0,0.1l-0.6,0.1c-0.1-0.3-0.2-0.4-0.5-0.4   c-0.2,0-0.3,0.1-0.3,0.2c0,0.2,0.2,0.2,0.7,0.4c0.5,0.1,0.8,0.4,0.8,0.8c0,0.5-0.4,0.9-1.1,0.9C40.5,25.7,40.1,25.4,39.9,24.9z"/>
	<path class="st1" d="M42.7,24.7v-1.8h0.8v1.7c0,0.3,0.2,0.5,0.5,0.5c0.3,0,0.5-0.2,0.6-0.4v-1.7h0.8v2.7h-0.8v-0.3   c-0.2,0.2-0.5,0.4-0.9,0.4C43.1,25.7,42.7,25.3,42.7,24.7z"/>
	<path class="st1" d="M46.1,25.7v-2.7h0.8v0.4c0.2-0.2,0.5-0.4,0.9-0.4c0.6,0,1,0.4,1,0.9v1.9h-0.8V24c0-0.3-0.2-0.5-0.4-0.5   c-0.3,0-0.5,0.2-0.6,0.4v1.7H46.1z"/>
	<path class="st1" d="M49.3,26L49.3,26l0.8-0.1c0.1,0.2,0.2,0.4,0.6,0.4c0.4,0,0.6-0.2,0.6-0.6v-0.2c-0.2,0.2-0.4,0.3-0.8,0.3   c-0.7,0-1.3-0.5-1.3-1.4s0.6-1.4,1.3-1.4c0.4,0,0.6,0.1,0.8,0.3v-0.2H52v2.6c0,0.8-0.5,1.3-1.4,1.3C49.8,26.8,49.4,26.4,49.3,26z    M51.3,24.4v-0.3c0-0.4-0.3-0.6-0.7-0.6c-0.4,0-0.7,0.2-0.7,0.8s0.3,0.8,0.7,0.8C51,25.1,51.3,24.8,51.3,24.4z"/>
</g>
</svg>