<svg xmlns="http://www.w3.org/2000/svg" width="30" height="27" viewBox="0 0 30 27">
    <path fill="#0DC803" fill-rule="evenodd" d="M28.424 6.824c-.1-.165-.175-.169-.332-.074-.518.313-1.045.612-1.57.912-1.34.764-2.68 1.525-4.02 2.288-1.584.904-3.17 1.806-4.753 2.713-2.238 1.283-4.474 2.57-6.712 3.854-.625.36-1.224.166-1.523-.488-.25-.547-.504-1.092-.755-1.64-.652-1.423-1.304-2.847-1.953-4.273-.12-.262-.075-.452.123-.617.188-.155.411-.155.642.008 1.044.738 2.083 1.481 3.132 2.212.47.328.984.374 1.516.141 1.361-.597 2.723-1.192 4.082-1.793 1.93-.853 3.856-1.712 5.784-2.566a907.978 907.978 0 0 1 4.905-2.158c.212-.092.227-.162.076-.33-1.217-1.354-2.656-2.409-4.288-3.227a16.927 16.927 0 0 0-4.74-1.544c-1.003-.173-2.016-.283-2.963-.228-1.366-.038-2.634.118-3.893.388-1.01.216-1.99.516-2.941.913C5.69 2.38 3.554 3.96 1.969 6.23.685 8.07.02 10.11 0 12.343a10.09 10.09 0 0 0 .454 3.044c.6 1.963 1.69 3.618 3.156 5.047.5.487 1.044.922 1.599 1.343.343.26.462.614.363 1.01-.201.805-.437 1.601-.658 2.401-.037.135-.073.271-.108.406a.467.467 0 0 0 .187.527c.192.136.408.103.612-.014 1.08-.616 2.16-1.233 3.242-1.846.316-.18.65-.312 1.023-.238.277.054.55.131.823.205 1.17.316 2.366.469 3.574.51a18.504 18.504 0 0 0 3.663-.22 16.732 16.732 0 0 0 2.968-.747c1.753-.634 3.374-1.505 4.803-2.711 1.988-1.68 3.383-3.724 4.007-6.26.337-1.368.374-2.747.154-4.128-.218-1.372-.72-2.652-1.438-3.848"/>
</svg>
